# xmcd
#
# Track frame offsets:
#	150
#	20033
#	44165
#	63138
#	88718
#	113698
#	135185
#	158028
#	186269
#	210750
#	239635
#	266655
#
# Disc length: 3909 seconds
#
# Revision: 1
# Processed by: cddbd v1.5.2PL0 Copyright (c) Steve Scherf et al.
# Submitted via: EZCDAudioConverter 8.0.2.1
#
DISCID=a00f430c
DTITLE=Trường Vũ - Kẻ ở miền xa
DYEAR=2001
DGENRE=country
TTITLE0=Tình bạn Quang Trung
TTITLE1=Mười sáu trăng tròn
TTITLE2=Kẻ ở miền xa
TTITLE3=Giã biệt Sài Gòn
TTITLE4=Thương về quán trọ
TTITLE5=Đêm trên đỉnh sầu
TTITLE6=Viết từ KBC
TTITLE7=Ngoại ô buồn
TTITLE8=Chúng mình ba đưa
TTITLE9=Đêm hỏa châu
TTITLE10=Vườn tao ngộ
TTITLE11=Mai anh di rồi
EXTD=
EXTT0=
EXTT1=
EXTT2=
EXTT3=
EXTT4=
EXTT5=
EXTT6=
EXTT7=
EXTT8=
EXTT9=
EXTT10=
EXTT11=
PLAYORDER=
